<svg width="134" height="147" viewBox="0 0 134 147" fill="none" xmlns="http://www.w3.org/2000/svg">
<path d="M28.976 143.088C28.976 144.016 28.664 144.72 28.04 145.2C27.4 145.68 26.464 146 25.232 146.16C24 146.32 22.472 146.4 20.648 146.4C18.824 146.4 17.288 146.32 16.04 146.16C14.792 146 13.856 145.68 13.232 145.2C12.592 144.72 12.272 144.016 12.272 143.088C12.272 142.272 12.528 141.648 13.04 141.216C13.536 140.768 14.264 140.456 15.224 140.28C16.184 140.088 17.336 139.976 18.68 139.944C18.68 139.672 18.68 139.392 18.68 139.104C18.68 138.816 18.68 138.528 18.68 138.24C18.68 137.904 18.68 137.576 18.68 137.256C18.68 136.92 18.688 136.6 18.704 136.296C17.344 136.264 16.184 136.16 15.224 135.984C14.264 135.808 13.528 135.504 13.016 135.072C12.504 134.624 12.248 133.992 12.248 133.176C12.248 132.248 12.568 131.544 13.208 131.064C13.848 130.584 14.792 130.264 16.04 130.104C17.288 129.928 18.824 129.84 20.648 129.84C22.472 129.84 24 129.928 25.232 130.104C26.464 130.264 27.392 130.584 28.016 131.064C28.64 131.544 28.952 132.248 28.952 133.176C28.952 134.328 28.456 135.112 27.464 135.528C26.472 135.944 25.064 136.192 23.24 136.272C23.256 136.64 23.264 137.032 23.264 137.448C23.264 137.864 23.264 138.288 23.264 138.72C23.264 138.928 23.264 139.136 23.264 139.344C23.264 139.552 23.264 139.76 23.264 139.968C25.072 140.048 26.48 140.304 27.488 140.736C28.48 141.152 28.976 141.936 28.976 143.088Z" fill="black"/>
<path d="M17.5423 123.197C17.44 123.974 17.0757 124.596 16.4495 125.062C15.8074 125.526 15.0819 125.705 14.2728 125.599C13.7335 125.528 13.2653 125.345 12.8684 125.051C12.4735 124.74 12.1763 124.362 11.9768 123.916C11.7635 123.453 11.6913 122.959 11.7602 122.436C11.827 121.928 12.0224 121.486 12.3464 121.109C12.6566 120.714 13.0426 120.418 13.5043 120.22C13.966 120.023 14.4665 119.96 15.0059 120.031C15.5452 120.102 16.0203 120.293 16.431 120.606C16.8259 120.916 17.13 121.303 17.3433 121.767C17.5428 122.212 17.6091 122.689 17.5423 123.197ZM29.0827 124.716C28.9992 125.351 28.7541 125.802 28.3475 126.072C27.943 126.325 27.3606 126.458 26.6004 126.471C25.8265 126.466 24.8436 126.393 23.6517 126.252C22.462 126.096 21.4927 125.92 20.7438 125.724C19.997 125.513 19.47 125.226 19.1628 124.863C18.8397 124.497 18.7199 123.997 18.8034 123.363C18.887 122.728 19.131 122.284 19.5355 122.031C19.9263 121.76 20.5097 121.619 21.2857 121.608C22.0618 121.597 23.0447 121.67 24.2344 121.827C25.4262 121.967 26.3956 122.143 27.1424 122.355C27.8733 122.564 28.4003 122.851 28.7234 123.216C29.0465 123.582 29.1663 124.082 29.0827 124.716Z" fill="black"/>
<path d="M31.2251 110.53C31.8433 110.696 32.3784 110.955 32.8304 111.308C33.2825 111.661 33.6407 112.056 33.905 112.491C34.1735 112.911 34.3529 113.323 34.4431 113.728C34.5529 114.122 34.5726 114.45 34.5022 114.713C34.4152 115.038 34.2521 115.275 34.0128 115.427C33.7777 115.562 33.521 115.593 33.2428 115.519C32.9646 115.444 32.7535 115.305 32.6094 115.1C32.4695 114.881 32.3317 114.653 32.1959 114.418C32.0602 114.183 31.8692 113.999 31.623 113.867C31.3277 114.351 30.9748 114.679 30.5644 114.851C30.1427 115.003 29.7155 115.021 29.2827 114.905C28.7418 114.76 28.2913 114.432 27.9312 113.921C27.5752 113.395 27.4842 112.808 27.6581 112.159C27.8445 111.463 28.2295 110.953 28.8132 110.63C29.4011 110.29 30.2051 110.257 31.2251 110.53Z" fill="black"/>
<path d="M38.4602 87.9297C38.277 88.4589 38.0836 88.993 37.88 89.532C37.6612 90.0659 37.4128 90.5386 37.1348 90.9503C36.8568 91.362 36.5244 91.6617 36.1377 91.8495C35.7562 92.0222 35.3084 92.0195 34.7943 91.8415C34.1291 91.6111 33.7389 91.222 33.6239 90.6742C33.4937 90.1211 33.4958 89.5038 33.6302 88.8223C33.0854 88.6844 32.5004 88.5157 31.8752 88.3161C31.235 88.1113 30.552 87.8833 29.8263 87.632C29.1611 87.4016 28.5363 87.1767 27.9518 86.9574C27.3523 86.7329 26.8083 86.5191 26.3199 86.3161C25.9621 87.0557 25.5352 87.6529 25.0391 88.1076C24.5482 88.5472 23.9173 88.6334 23.1462 88.3664C22.5717 88.1674 22.1856 87.8644 21.9879 87.4573C21.7751 87.045 21.6946 86.5684 21.7465 86.0276C21.7884 85.4664 21.8964 84.8858 22.0703 84.2857C22.2495 83.6704 22.4412 83.068 22.6454 82.4783C22.8496 81.8887 23.0715 81.2967 23.3112 80.7024C23.5509 80.1081 23.8251 79.5851 24.134 79.1333C24.4277 78.6762 24.7857 78.3515 25.2079 78.1591C25.6203 77.9463 26.1137 77.9394 26.6882 78.1384C27.2023 78.3164 27.566 78.5862 27.7793 78.948C27.9927 79.3097 28.0991 79.736 28.0984 80.2268C28.0827 80.7124 28.016 81.2227 27.8985 81.7577C28.4131 81.8851 28.9679 82.0433 29.5627 82.2324C30.1576 82.4215 30.7952 82.6338 31.4756 82.8695C32.2013 83.1208 32.8764 83.3715 33.501 83.6217C34.1156 83.8514 34.6797 84.0806 35.1931 84.3093C35.5043 83.6551 35.8847 83.1434 36.3343 82.7742C36.774 82.3846 37.334 82.3076 38.0144 82.5432C38.5284 82.7213 38.8793 83.0036 39.0671 83.3904C39.2601 83.762 39.336 84.2031 39.2946 84.7137C39.2585 85.2091 39.1613 85.7342 39.003 86.289C38.8297 86.8385 38.6487 87.3854 38.4602 87.9297Z" fill="black"/>
<path d="M32.5922 69.0929C33.0999 69.4825 33.4951 69.9268 33.7776 70.426C34.0601 70.9251 34.2402 71.4263 34.3179 71.9296C34.4053 72.4202 34.4195 72.8748 34.3605 73.2933C34.2985 73.6895 34.1848 73.9955 34.0192 74.2113C33.8146 74.4778 33.5729 74.6352 33.2939 74.6833C33.0247 74.7187 32.7759 74.6488 32.5474 74.4735C32.3189 74.2982 32.1772 74.0886 32.1223 73.8448C32.0771 73.5883 32.0368 73.3254 32.0014 73.0562C31.9659 72.787 31.8598 72.5442 31.6829 72.3278C31.2248 72.662 30.7734 72.8299 30.3285 72.8314C29.8807 72.8105 29.4791 72.6636 29.1237 72.3909C28.6794 72.05 28.3886 71.5748 28.2513 70.9652C28.1238 70.343 28.2645 69.7653 28.6736 69.2322C29.1119 68.661 29.6627 68.3374 30.326 68.2615C30.999 68.1729 31.7544 68.45 32.5922 69.0929Z" fill="black"/>
<path d="M50.4988 68.5801C50.031 69.1892 49.5098 69.4345 48.9351 69.3159C48.3604 69.1974 47.6924 68.8457 46.931 68.261C46.2965 67.7738 45.7552 67.3884 45.3072 67.1049C44.8592 66.8213 44.5134 66.8382 44.2698 67.1554C44.0652 67.4219 44.0141 67.6854 44.1168 67.9457C44.2292 68.1934 44.4455 68.4503 44.7656 68.7164C45.0858 68.9825 45.4617 69.2812 45.8931 69.6125C46.3373 69.9536 46.719 70.2971 47.0382 70.6432C47.3546 70.9668 47.5378 71.3193 47.5878 71.7007C47.6349 72.0597 47.4831 72.4676 47.1323 72.9244C46.7912 73.3686 46.3548 73.6084 45.8232 73.644C45.3013 73.6668 44.7266 73.5483 44.0991 73.2883C43.4716 73.0283 42.8338 72.6898 42.1858 72.2728C41.5377 71.8558 40.9218 71.4232 40.338 70.9749C39.2721 70.1563 38.4632 69.3838 37.9115 68.6575C37.347 67.9214 37.2147 67.1742 37.5146 66.416C37.6927 65.9476 37.9641 65.5811 38.3288 65.3164C38.6934 65.0518 39.0592 64.9695 39.4261 65.0697C39.4601 64.8941 39.5136 64.6931 39.5865 64.4667C39.6468 64.2306 39.8232 63.9222 40.1155 63.5415C40.4079 63.1608 40.7905 62.8595 41.2635 62.6377C41.7364 62.4159 42.2203 62.3638 42.715 62.4814C42.5935 61.904 42.5629 61.366 42.6229 60.8675C42.683 60.3689 42.9484 59.8263 43.4191 59.2396C44.0458 58.4499 44.8195 57.9547 45.7402 57.754C46.6483 57.5435 47.619 57.593 48.6523 57.9024C49.6827 58.1893 50.6801 58.7031 51.6446 59.4438C52.2664 59.9213 52.8189 60.4364 53.3023 60.9892C53.7826 61.5195 54.0884 62.067 54.2196 62.6317C54.3605 63.1838 54.2312 63.7199 53.8316 64.2402C53.4808 64.697 53.1147 64.9505 52.7333 65.0005C52.3617 65.0379 51.9738 64.9519 51.5698 64.7425C51.1628 64.5106 50.7372 64.2241 50.2931 63.8831C49.8616 63.5517 49.4761 63.2657 49.1364 63.025C48.7967 62.7843 48.4927 62.6417 48.2244 62.597C47.9561 62.5523 47.7147 62.6696 47.5003 62.9488C47.3444 63.1518 47.3324 63.3645 47.4643 63.5868C47.5962 63.8091 47.8222 64.0533 48.1424 64.3194C48.4723 64.5728 48.8481 64.8715 49.2698 65.2155C50.0215 65.8129 50.5238 66.3802 50.7769 66.9176C51.0398 67.4422 50.9471 67.9964 50.4988 68.5801Z" fill="black"/>
<path d="M75.4954 45.6867C75.0272 45.994 74.5603 46.1282 74.0946 46.0893C73.6336 46.0284 73.2266 45.8457 72.8738 45.5414C72.5209 45.2371 72.1819 44.8664 71.8566 44.4291C71.5226 43.9785 71.2019 43.5191 70.8946 43.051C70.5919 42.5607 70.3022 42.1193 70.0255 41.7268C69.7487 41.3343 69.4979 41.0396 69.2729 40.8427C69.048 40.6458 68.8419 40.6088 68.6547 40.7318C68.3872 40.9074 68.2745 41.144 68.3168 41.4416C68.3502 41.7258 68.4899 42.0552 68.7357 42.4298C68.9727 42.7909 69.2518 43.1723 69.5729 43.574C69.9073 43.967 70.2418 44.3599 70.5762 44.7528C70.9019 45.1323 71.1701 45.4826 71.3808 45.8036C71.8198 46.4724 71.9689 47.0349 71.828 47.491C71.7006 47.9382 71.376 48.3331 70.8543 48.6755C70.3327 49.0179 69.7307 49.1068 69.0485 48.9421C68.3709 48.7553 67.6744 48.4086 66.9591 47.9021C66.2484 47.3733 65.5628 46.7516 64.9023 46.0368C64.2418 45.322 63.6744 44.6035 63.2003 43.8812C62.6209 42.9984 62.1526 42.0808 61.7956 41.1286C61.4519 40.1676 61.2589 39.2321 61.2166 38.322C61.1877 37.4032 61.3402 36.5567 61.6741 35.7825C62.0081 35.0083 62.5763 34.3578 63.3789 33.831C64.0075 33.4184 64.6214 33.2164 65.2204 33.2252C65.8107 33.2205 66.3623 33.3465 66.8752 33.6031C67.4015 33.851 67.852 34.1582 68.2265 34.5248C68.0392 34.0353 67.9299 33.5042 67.8985 32.9315C67.8671 32.3588 67.9709 31.8026 68.21 31.2629C68.4403 30.7099 68.8631 30.2314 69.4784 29.8275C70.4949 29.1603 71.564 28.9083 72.6856 29.0717C73.8205 29.2263 74.9396 29.7358 76.0429 30.6001C77.1373 31.4512 78.163 32.6057 79.12 34.0636C79.5678 34.7458 79.9683 35.5164 80.3216 36.3754C80.6661 37.2211 80.913 38.0638 81.0623 38.9036C81.2162 39.7212 81.2353 40.4647 81.1196 41.1339C80.995 41.7898 80.6853 42.2802 80.1904 42.605C79.6554 42.9562 79.1462 43.099 78.663 43.0334C78.1797 42.9678 77.7186 42.6006 77.2797 41.9318C77.0689 41.6108 76.8543 41.2254 76.6356 40.7756C76.4082 40.3125 76.1807 39.8493 75.9533 39.3862C75.7258 38.923 75.4936 38.5109 75.2565 38.1497C75.0107 37.7752 74.764 37.516 74.5166 37.3723C74.2737 37.2063 74.0185 37.2112 73.751 37.3867C73.5637 37.5097 73.5089 37.7178 73.5867 38.0113C73.6779 38.2959 73.8418 38.6477 74.0784 39.0665C74.3196 39.4632 74.5983 39.9023 74.9143 40.3839C75.2216 40.852 75.5155 41.329 75.7961 41.8147C76.09 42.2916 76.3064 42.7525 76.4452 43.1973C76.5974 43.6333 76.603 44.0793 76.4622 44.5354C76.3126 44.9781 75.9903 45.3618 75.4954 45.6867Z" fill="black"/>
<path d="M89.9086 37.1775C89.2026 37.5185 88.5021 37.7236 87.807 37.7927C87.1263 37.855 86.5087 37.7535 85.9542 37.4883C85.3927 37.2086 84.9484 36.7302 84.6214 36.0531C84.343 35.4768 84.2793 34.9034 84.4303 34.333C84.5812 33.7626 84.8926 33.2301 85.3646 32.7357C85.8509 32.2343 86.447 31.8131 87.153 31.4721C87.5708 31.2703 87.97 31.1219 88.3506 31.027C88.7242 30.9176 88.9967 30.8748 89.1682 30.8986C89.0081 30.5672 88.7321 30.3452 88.34 30.2325C87.941 30.1054 87.403 30.2053 86.7258 30.5324C86.4088 30.6855 86.1706 30.8361 86.0111 30.9842C85.8591 31.1109 85.7285 31.2451 85.6192 31.3867C85.5099 31.5283 85.3755 31.6732 85.2161 31.8212C85.0641 31.948 84.8368 32.0844 84.5342 32.2305C84.0876 32.4462 83.6717 32.5049 83.2866 32.4066C82.909 32.287 82.6019 31.9822 82.3653 31.4923C82.1496 31.0457 82.0877 30.6048 82.1795 30.1695C82.2788 29.7129 82.4779 29.2791 82.777 28.8681C83.076 28.4572 83.4317 28.0899 83.844 27.7664C84.2708 27.4359 84.7003 27.1663 85.1325 26.9575C86.4148 26.3382 87.5741 26.0715 88.6106 26.1572C89.6401 26.2286 90.5303 26.5449 91.2811 27.1062C92.032 27.6676 92.6196 28.3876 93.0441 29.2665C93.2807 29.7564 93.4567 30.2311 93.572 30.6906C93.7018 31.1433 93.7575 31.5161 93.7391 31.8093C94.0244 31.8848 94.2731 32.0134 94.4852 32.1952C94.7118 32.3701 94.8843 32.58 95.0026 32.8249C95.1974 33.2283 95.2345 33.6546 95.1139 34.1038C95.0007 34.5316 94.6991 34.8638 94.2093 35.1004C93.8347 35.2813 93.5115 35.3663 93.2397 35.3554C92.9679 35.3446 92.6787 35.2977 92.3722 35.2147C92.1238 35.5834 91.8185 35.9263 91.4564 36.2434C91.0873 36.546 90.5714 36.8574 89.9086 37.1775ZM89.2866 34.786C89.618 34.626 89.8316 34.4428 89.9275 34.2366C90.0308 34.009 90.0407 33.8088 89.9572 33.6359C89.8737 33.463 89.7141 33.3535 89.4786 33.3073C89.2506 33.2398 88.9708 33.2861 88.6395 33.4461C88.3225 33.5992 88.1124 33.7895 88.0091 34.0171C87.8988 34.2303 87.8854 34.4233 87.9689 34.5962C88.0524 34.7691 88.2154 34.8858 88.4579 34.9464C88.6934 34.9926 88.9696 34.9391 89.2866 34.786Z" fill="black"/>
<path d="M100.524 33.4452C100.007 33.6158 99.5266 33.5892 99.082 33.3654C98.6475 33.1214 98.2514 32.7383 97.8936 32.2162C97.5358 31.6941 97.2035 31.0708 96.8968 30.3465C96.5902 29.6221 96.3063 28.8649 96.0454 28.0749C95.8697 27.5431 95.6992 27.0013 95.5337 26.4493C95.3784 25.8772 95.2837 25.3355 95.2497 24.8244C95.2309 24.3083 95.3257 23.8557 95.5342 23.4667C95.7529 23.0574 96.1509 22.7575 96.7282 22.5668C97.1384 22.4313 97.5432 22.4071 97.9427 22.4942C98.3372 22.5661 98.6427 22.7769 98.8593 23.1266C99.1034 22.6921 99.4687 22.3187 99.9553 22.0063C100.452 21.6737 100.989 21.4121 101.566 21.2214C102.053 21.0608 102.586 21.0192 103.168 21.0967C103.745 21.159 104.276 21.3375 104.76 21.6323C105.245 21.9271 105.573 22.3327 105.744 22.8493C105.889 23.2899 105.86 23.7629 105.656 24.2683C105.468 24.7687 105.077 25.1167 104.485 25.3124C104.227 25.3978 104.004 25.4376 103.817 25.4321C103.624 25.4113 103.442 25.3956 103.27 25.385C103.098 25.3745 102.906 25.4043 102.693 25.4746C102.131 25.6602 101.69 26.0587 101.369 26.6701C101.059 27.2612 101.03 27.9366 101.28 28.6963C101.411 29.0913 101.539 29.5293 101.664 30.0103C101.799 30.4711 101.876 30.9342 101.895 31.3998C101.93 31.8603 101.848 32.275 101.649 32.6438C101.446 32.9974 101.071 33.2646 100.524 33.4452Z" fill="black"/>
<path d="M114.022 33.8449C113.503 33.9437 113.003 33.9657 112.52 33.9111C112.056 33.8691 111.654 33.7257 111.314 33.481C110.977 33.2519 110.766 32.9095 110.679 32.4537C110.574 31.9036 110.746 31.4392 111.195 31.0605C111.645 30.6818 112.186 30.4483 112.821 30.3601C113.516 30.2441 114.044 30.1109 114.406 29.9605C114.781 29.7914 115.047 29.5617 115.204 29.2713C113.758 29.5466 112.562 29.5543 111.617 29.2946C110.671 29.0348 109.917 28.4943 109.353 27.6732C108.806 26.8491 108.396 25.7219 108.123 24.2916C107.977 23.5215 107.922 22.8071 107.96 22.1484C107.994 21.4741 108.148 20.9154 108.422 20.4723C108.709 20.0106 109.143 19.7243 109.725 19.6136C110.51 19.464 111.112 19.5856 111.529 19.9786C111.943 20.3559 112.206 20.8431 112.32 21.4404C112.422 21.9748 112.514 22.5028 112.597 23.0245C112.677 23.5305 112.778 23.9754 112.9 24.3594C113.022 24.7434 113.208 25.0338 113.457 25.2306C113.706 25.4275 114.051 25.484 114.491 25.4002C114.931 25.3165 115.231 25.1372 115.39 24.8626C115.55 24.5879 115.616 24.2496 115.588 23.8477C115.56 23.4458 115.492 23.0027 115.384 22.5184C115.272 22.0184 115.166 21.5013 115.064 20.9669C114.938 20.3067 115 19.733 115.249 19.2458C115.511 18.7399 116.027 18.4136 116.798 18.267C117.395 18.1533 117.904 18.26 118.324 18.5871C118.758 18.8955 119.114 19.3569 119.394 19.9714C119.671 20.5702 119.883 21.2547 120.029 22.0248C120.275 23.3137 120.374 24.6059 120.328 25.9014C120.294 27.1783 120.055 28.3638 119.612 29.458C119.185 30.5492 118.516 31.4828 117.605 32.2589C116.709 33.032 115.515 33.5607 114.022 33.8449Z" fill="black"/>
<path d="M125.871 13.2653C126.637 13.2214 127.247 13.3707 127.699 13.7134C128.152 14.0561 128.482 14.5099 128.691 15.0749C128.898 15.6239 129.019 16.194 129.053 16.785C129.082 17.2962 129.084 17.881 129.058 18.5396C129.031 19.1982 128.965 19.8671 128.86 20.5462C128.77 21.2085 128.637 21.8331 128.463 22.42C128.371 22.7778 128.166 23.1261 127.849 23.4648C127.532 23.8035 127.078 23.9898 126.487 24.0237C125.896 24.0575 125.424 23.9243 125.07 23.6241C124.716 23.3238 124.465 23.0016 124.317 22.6575C124.077 22.0944 123.866 21.4895 123.684 20.8428C123.518 20.1792 123.384 19.5218 123.283 18.8705C123.182 18.2192 123.116 17.638 123.087 17.1269C123.069 16.5349 123.132 15.9544 123.276 15.3852C123.418 14.8001 123.687 14.3119 124.081 13.9207C124.491 13.5286 125.088 13.3102 125.871 13.2653ZM126.801 29.9194C126.354 29.945 125.932 29.857 125.536 29.6553C125.155 29.4367 124.834 29.1506 124.573 28.797C124.327 28.4264 124.192 28.0175 124.166 27.5702C124.141 27.123 124.229 26.7092 124.432 26.329C124.649 25.9319 124.935 25.611 125.29 25.3663C125.66 25.1048 126.068 24.9612 126.515 24.9355C126.963 24.9099 127.377 25.0064 127.758 25.2249C128.154 25.4266 128.475 25.7127 128.721 26.0833C128.981 26.4369 129.124 26.8374 129.15 27.2847C129.176 27.7319 129.08 28.1541 128.862 28.5512C128.659 28.9314 128.373 29.2523 128.004 29.5139C127.649 29.7586 127.248 29.8937 126.801 29.9194Z" fill="black"/>
</svg>
