<svg width="46" height="46" viewBox="0 0 46 46" fill="none" xmlns="http://www.w3.org/2000/svg">
<path d="M38.8438 38.8438H32.1762V28.4001C32.1762 25.9101 32.1313 22.7038 28.7075 22.7038C25.235 22.7038 24.7025 25.4188 24.7025 28.2163V38.8438H18.035V17.3676H24.4363V20.3038H24.5262C25.8312 18.0763 28.2612 16.7413 30.8412 16.8351C37.5987 16.8351 38.8475 21.2788 38.8475 27.0651L38.8438 38.8401V38.8438ZM10.5125 14.4313C9.48828 14.4264 8.50735 14.0176 7.78276 13.2937C7.05816 12.5698 6.64841 11.5893 6.6425 10.5651C6.6425 8.44256 8.39 6.69506 10.5125 6.69506C12.635 6.69506 14.3788 8.44256 14.3825 10.5651C14.3825 12.6876 12.635 14.4313 10.5125 14.4313ZM13.8463 38.8438H7.17125V17.3676H13.8463V38.8438ZM42.1625 0.500056H3.81875C2.94931 0.495006 2.11302 0.833279 1.49159 1.44137C0.870158 2.04945 0.513817 2.87822 0.5 3.74756V42.2526C0.513817 43.1219 0.870158 43.9507 1.49159 44.5587C2.11302 45.1668 2.94931 45.5051 3.81875 45.5001H42.1663C43.0377 45.5071 43.8767 45.17 44.5009 44.5619C45.1252 43.9538 45.4842 43.1239 45.5 42.2526V3.74381C45.4842 2.87316 45.1249 2.04404 44.5005 1.43714C43.876 0.830239 43.037 0.494757 42.1663 0.503805L42.1625 0.500056Z" fill="#0A66C2"/>
</svg>
