<svg width="22" height="29" viewBox="0 0 22 29" fill="none" xmlns="http://www.w3.org/2000/svg">
<path d="M11 0C4.92525 0 0 4.86928 0 10.875C0 13.2399 0.784208 15.4099 2.08771 17.187C2.11108 17.2296 2.11475 17.2772 2.14133 17.318L9.47467 28.193C9.81475 28.6973 10.3877 29 11 29C11.6123 29 12.1852 28.6973 12.5253 28.193L19.8587 17.318C19.8857 17.2772 19.8889 17.2296 19.9123 17.187C21.2158 15.4099 22 13.2399 22 10.875C22 4.86928 17.0748 0 11 0ZM11 14.5C8.97508 14.5 7.33333 12.8769 7.33333 10.875C7.33333 8.87309 8.97508 7.25 11 7.25C13.0249 7.25 14.6667 8.87309 14.6667 10.875C14.6667 12.8769 13.0249 14.5 11 14.5Z" fill="#FE345D"/>
</svg>
