<?xml version="1.0" encoding="UTF-8"?>
<!DOCTYPE svg PUBLIC "-//W3C//DTD SVG 1.1//EN" "http://www.w3.org/Graphics/SVG/1.1/DTD/svg11.dtd">
<!-- Creator: CorelDRAW -->
<svg xmlns="http://www.w3.org/2000/svg" xml:space="preserve" width="2048px" height="2048px" style="shape-rendering:geometricPrecision; text-rendering:geometricPrecision; image-rendering:optimizeQuality; fill-rule:evenodd; clip-rule:evenodd"
viewBox="0 0 2048 2048"
 xmlns:xlink="http://www.w3.org/1999/xlink">
 <defs>
  <style type="text/css">
   <![CDATA[
    .fil0 {fill:none}
    .fil1 {fill:#424242;fill-rule:nonzero}
   ]]>
  </style>
 </defs>
 <g id="Layer_x0020_1">
  <metadata id="CorelCorpID_0Corel-Layer"/>
  <g id="_244664832">
   <rect id="_244664160" class="fil0" width="2048" height="2048"/>
   <rect id="_244663056" class="fil0" x="255.999" y="255.999" width="1536" height="1536"/>
  </g>
  <path class="fil1" d="M1170.52 313.992c-15.6402,-31.1351 -34.3713,-50.3244 -54.6922,-52.826 -27.0461,-3.32953 -57.7229,21.6378 -86.6906,65.7567 -34.2898,52.226 -63.3969,128.923 -80.9457,218.849l-14.7343 75.502 -45 -62.4603c-53.3752,-74.0894 -111.932,-131.531 -165.144,-164.762 -44.876,-28.0252 -83.2052,-37.937 -106.291,-23.654 -17.3504,10.7362 -26.3126,36.0307 -27.4961,70.9347 -1.47638,43.4764 9.58938,99.0343 32.1236,160.114l23.5477 63.8256 -64.891 -20.5252c-61.95,-19.5945 -117.95,-28.0122 -161.398,-24.4843 -34.8296,2.82756 -59.6788,12.9555 -69.5705,30.7654 -9.90355,17.8288 -5.36811,44.3032 10.65,75.3945 19.9547,38.7319 56.6741,81.8044 106.024,124.024l51.6296 44.1697 -66.6272 13.7374c-63.5693,13.1067 -116.517,33.0709 -152.706,57.339 -29.0445,19.4776 -45.8067,40.5036 -45.7524,60.9815 0.0543308,20.328 16.9358,41.1969 46.0973,60.5268 36.4063,24.1323 89.4662,43.8366 153.034,56.589l66.6166 13.363 -51.3579 44.413c-49.0347,42.4052 -85.5072,85.6902 -105.305,124.63 -15.8398,31.1516 -20.2205,57.6485 -10.2106,75.4477 9.98387,17.7496 34.8733,27.7441 69.6945,30.3839 43.5638,3.30236 99.515,-5.39174 161.256,-25.2851l64.6512 -20.8311 -23.1768 63.8717c-22.1634,61.0831 -32.9103,116.656 -31.2,160.164 1.37126,34.9193 10.4728,60.1819 27.8918,70.8308 17.4284,10.6547 44.0989,7.22953 75.8575,-7.48938 39.4843,-18.3 84.0284,-53.1792 128.267,-100.724l46.3134 -49.7729 10.9429 67.1197c10.4469,64.089 28.1929,117.842 50.9398,155.029 18.2386,29.8146 38.5075,47.4272 58.9028,48.2244l0 0.00354331c20.4095,0.726379 41.9823,-15.2599 62.4721,-43.5355 25.6169,-35.3528 47.5075,-87.5162 62.8914,-150.461l16.161 -66.1229 42.2693 53.2099c40.3866,50.8406 82.082,89.093 120.046,110.434 30.4701,17.1284 56.7626,22.6146 74.9587,13.3583 18.1949,-9.25749 29.2347,-33.678 33.3154,-68.2878 5.12126,-43.4233 -1.22953,-99.7099 -18.5291,-162.227l-18.1169 -65.4709 62.8524 25.8225c60.1146,24.6957 115.16,37.754 158.632,37.8591 35.0103,0.0850394 60.6745,-7.963 72.052,-24.9402 11.3776,-16.9748 9.06733,-43.7729 -4.32048,-76.1292 -16.6217,-40.1776 -49.6394,-86.1532 -95.3635,-132.405l-47.7792 -48.3307 67.6028 -8.14134c64.5686,-7.77757 118.984,-23.2252 156.934,-44.3162 30.5126,-16.9571 48.9367,-36.463 50.5831,-56.8063 1.65709,-20.4839 -13.3701,-42.7571 -40.7386,-64.3867 -34.1457,-26.987 -85.4068,-51.0189 -147.866,-69.0768l-65.1804 -18.8445 54.8776 -39.9768c52.4658,-38.2193 92.4272,-78.2953 115.355,-115.371 18.3992,-29.7544 24.9815,-55.8189 16.4799,-74.4107 -8.48977,-18.5669 -32.4803,-30.6225 -66.9792,-36.1595 -42.9792,-6.89646 -99.4902,-2.85709 -162.889,11.8701l-66.1489 15.3662 28.4563 -61.7977c27.1843,-59.0327 42.5292,-113.492 44.4485,-156.928 1.54252,-34.9359 -5.42953,-60.8894 -21.9213,-72.9686 -16.4764,-12.0697 -43.3382,-10.8756 -76.2154,1.14567 -40.7929,14.9162 -88.069,45.9662 -136.162,89.6977l-50.3681 45.7996 -5.32205 -67.9713c-5.07756,-64.8473 -18.2433,-119.87 -37.7374,-158.673zm-149.965 512.711c110.637,0 200.328,89.6906 200.328,200.328 0,110.637 -89.6906,200.328 -200.328,200.328 -110.637,0 -200.328,-89.6906 -200.328,-200.328 0,-110.637 89.6906,-200.328 200.328,-200.328z"/>
 </g>
</svg>
