<?xml version="1.0" encoding="UTF-8"?>
<!DOCTYPE svg PUBLIC "-//W3C//DTD SVG 1.1//EN" "http://www.w3.org/Graphics/SVG/1.1/DTD/svg11.dtd">
<!-- Creator: CorelDRAW -->
<svg xmlns="http://www.w3.org/2000/svg" xml:space="preserve" width="2048px" height="2048px" style="shape-rendering:geometricPrecision; text-rendering:geometricPrecision; image-rendering:optimizeQuality; fill-rule:evenodd; clip-rule:evenodd"
viewBox="0 0 2048 2048"
 xmlns:xlink="http://www.w3.org/1999/xlink">
 <defs>
  <style type="text/css">
   <![CDATA[
    .fil0 {fill:none}
    .fil1 {fill:#424242;fill-rule:nonzero}
   ]]>
  </style>
 </defs>
 <g id="Layer_x0020_1">
  <metadata id="CorelCorpID_0Corel-Layer"/>
  <g id="_388239296">
   <rect id="_388238720" class="fil0" width="2048" height="2048"/>
   <rect id="_388240304" class="fil0" x="255.999" y="255.999" width="1536" height="1536"/>
  </g>
  <polygon class="fil1" points="1053.9,333.852 1148.44,572.317 1342.58,411.73 1407.29,358.201 1395.06,441.254 1357.7,695.064 1606.12,653.062 1688.66,639.103 1636.65,704.791 1477.33,905.995 1713.52,993.845 1792,1023.04 1714.15,1053.9 1475.68,1148.44 1636.27,1342.58 1689.8,1407.29 1606.75,1395.06 1352.94,1357.7 1394.94,1606.12 1408.9,1688.66 1343.21,1636.65 1142.01,1477.33 1054.15,1713.52 1024.96,1792 994.097,1714.15 899.557,1475.68 705.421,1636.27 640.711,1689.8 652.935,1606.75 690.296,1352.94 441.885,1394.94 359.338,1408.9 411.351,1343.21 570.672,1142.01 334.483,1054.15 255.999,1024.96 333.852,994.097 572.317,899.557 411.73,705.421 358.201,640.711 441.254,652.935 695.064,690.296 653.062,441.885 639.103,359.338 704.791,411.351 905.995,570.672 993.845,334.483 1023.04,255.999 "/>
 </g>
</svg>
