<?xml version="1.0" encoding="utf-8"?>
<!-- Generator: Adobe Adobe Illustrator 24.2.0, SVG Export Plug-In . SVG Version: 6.00 Build 0)  -->
<svg version="1.1" id="Layer_1" xmlns="http://www.w3.org/2000/svg" xmlns:xlink="http://www.w3.org/1999/xlink" x="0px" y="0px"
	 viewBox="0 0 8480 6840" style="enable-background:new 0 0 8480 6840;" xml:space="preserve">
<style type="text/css">
	.st0{display:none;fill:#FFFFFF;stroke:#000000;stroke-miterlimit:10;}
	.st1{display:none;fill:#FFFFFF;stroke:#3BDB7B;stroke-miterlimit:10;}
	.st2{fill:#FFFFFF;stroke:#000000;stroke-miterlimit:10;}
</style>





<g>
	<path class="st2" d="M5722.9,5531.78C4636.65,4057.75,3550.4,2583.72,2464.15,1109.7"/>
	<path class="st2" d="M5581.34,5630.1c-991.85-1539.13-1983.71-3078.26-2975.56-4617.39"/>
	<path class="st2" d="M5433.91,5719.36c-893.57-1598.2-1787.13-3196.39-2680.7-4794.59"/>
	<path class="st2" d="M5281.18,5799.22c-791.78-1651-1583.55-3301.99-2375.33-4952.99"/>
	<path class="st2" d="M5123.75,5869.37C4436.87,4172.05,3749.98,2474.73,3063.1,777.41"/>
	<path class="st2" d="M4962.23,5929.52C4382.94,4192.54,3803.65,2455.55,3224.36,718.57"/>
	<path class="st2" d="M4797.27,5979.45c-469.43-1769.84-938.86-3539.68-1408.29-5309.52"/>
	<path class="st2" d="M4629.51,6018.95c-357.73-1795.75-715.46-3591.5-1073.19-5387.26"/>
	<path class="st2" d="M4459.6,6047.87C4214.98,4233.25,3970.36,2418.63,3725.73,604"/>
	<path class="st2" d="M4288.22,6066.1c-130.56-1826.38-261.12-3652.75-391.68-5479.13"/>
	<path class="st2" d="M4116.03,6073.57c-15.98-1830.97-31.96-3661.93-47.95-5492.9"/>
	<path class="st2" d="M3943.71,6070.25c98.66-1828.38,197.31-3656.75,295.97-5485.13"/>
	<path class="st2" d="M3771.94,6056.14c212.91-1818.62,425.82-3637.23,638.73-5455.85"/>
	<path class="st2" d="M3601.39,6031.31c326.33-1801.72,652.65-3603.45,978.98-5405.17"/>
	<path class="st2" d="M3432.72,5995.86c438.46-1777.76,876.93-3555.53,1315.39-5333.29"/>
	<path class="st2" d="M3266.61,5949.91c548.88-1746.83,1097.77-3493.66,1646.65-5240.5"/>
	<path class="st2" d="M3103.7,5893.66c657.15-1709.05,1314.3-3418.1,1971.44-5127.15"/>
	<path class="st2" d="M2944.62,5827.32C3707.46,4162.76,4470.3,2498.19,5233.13,833.63"/>
	<path class="st2" d="M2790.02,5751.16c865.53-1613.55,1731.06-3227.1,2596.6-4840.66"/>
	<path class="st2" d="M2640.48,5665.47c964.83-1556.21,1929.67-3112.42,2894.5-4668.63"/>
	<path class="st2" d="M2496.6,5570.58c1060.35-1492.77,2120.7-2985.53,3181.06-4478.3"/>
	<path class="st2" d="M2358.94,5466.87c1151.71-1423.47,2303.42-2846.93,3455.13-4270.4"/>
	<path class="st2" d="M2228.04,5354.76C3466.6,4006.17,4705.15,2657.59,5943.71,1309"/>
	<path class="st2" d="M2104.42,5234.66C3424.96,3966.25,4745.5,2697.84,6066.04,1429.42"/>
	<path class="st2" d="M1988.56,5107.07C3385.9,3923.8,4783.25,2740.53,6180.59,1557.26"/>
	<path class="st2" d="M1880.91,4972.47c1468.67-1093.48,2937.34-2186.96,4406.01-3280.45"/>
	<path class="st2" d="M1781.9,4831.4c1534.24-999.41,3068.47-1998.82,4602.71-2998.22"/>
	<path class="st2" d="M1691.91,4684.41c1593.78-901.41,3187.57-1802.83,4781.35-2704.24"/>
	<path class="st2" d="M1611.3,4532.07c1647.08-799.88,3294.16-1599.77,4941.25-2399.65"/>
	<path class="st2" d="M1540.38,4374.99c1693.92-695.22,3387.84-1390.44,5081.76-2085.65"/>
	<path class="st2" d="M1479.43,4213.77c1734.12-587.82,3468.23-1175.65,5202.35-1763.47"/>
	<path class="st2" d="M1428.7,4049.06c1767.51-478.13,3535.02-956.25,5302.53-1434.38"/>
	<path class="st2" d="M1388.37,3881.49c1793.97-366.55,3587.94-733.11,5381.91-1099.66"/>
	<path class="st2" d="M1358.61,3711.73c1813.4-253.54,3626.8-507.08,5440.19-760.63"/>
	<path class="st2" d="M1339.54,3540.44c1825.71-139.54,3651.42-279.07,5477.14-418.61"/>
	<path class="st2" d="M1331.23,3368.29c1830.87-24.98,3661.73-49.97,5492.6-74.95"/>
	<path class="st2" d="M1333.7,3195.96c1828.84,89.67,3657.68,179.33,5486.52,269"/>
	<path class="st2" d="M1346.96,3024.12c1819.64,203.97,3639.28,407.93,5458.92,611.9"/>
	<path class="st2" d="M1370.95,2853.44c1803.31,317.46,3606.61,634.93,5409.92,952.39"/>
	<path class="st2" d="M1405.58,2684.61c1779.9,429.72,3559.8,859.44,5339.69,1289.16"/>
	<path class="st2" d="M1450.7,2518.27c1749.51,540.29,3499.02,1080.57,5248.53,1620.86"/>
	<path class="st2" d="M1506.15,2355.08c1712.26,648.74,3424.52,1297.47,5136.78,1946.21"/>
	<path class="st2" d="M1571.71,2195.69c1668.3,754.64,3336.59,1509.29,5004.89,2263.93"/>
	<path class="st2" d="M1647.11,2040.71c1617.79,857.59,3235.58,1715.18,4853.36,2572.77"/>
	<path class="st2" d="M1732.07,1890.75c1560.94,957.17,3121.87,1914.34,4682.81,2871.51"/>
	<path class="st2" d="M1826.25,1746.4c1497.96,1053,2995.92,2106,4493.88,3159"/>
	<path class="st2" d="M1929.28,1608.24c1429.11,1144.7,2858.22,2289.4,4287.33,3434.1"/>
	<path class="st2" d="M2040.75,1476.79C3395.41,2708.7,4750.06,3940.61,6104.72,5172.51"/>
	<path class="st2" d="M2160.23,1352.58c1274.89,1314.29,2549.78,2628.57,3824.67,3942.86"/>
	<path class="st2" d="M2287.26,1236.09C3477.38,2627.6,4667.5,4019.11,5857.63,5410.62"/>
	<path class="st2" d="M2421.32,1127.78C3522.01,2591.06,4622.7,4054.33,5723.39,5517.61"/>
	<path class="st2" d="M2561.9,1028.07c1006.94,1529.3,2013.88,3058.61,3020.82,4587.91"/>
	<path class="st2" d="M2708.45,937.36c909.24,1589.33,1818.48,3178.67,2727.72,4768"/>
	<path class="st2" d="M2860.39,856c807.97,1643.13,1615.95,3286.26,2423.92,4929.39"/>
	<path class="st2" d="M3017.12,784.32C3720.66,2474.8,4424.2,4165.28,5127.74,5855.76"/>
	<path class="st2" d="M3178.04,722.58c596.34,1731.2,1192.69,3462.41,1789.03,5193.61"/>
	<path class="st2" d="M3342.5,671.03c486.81,1765.14,973.62,3530.27,1460.43,5295.41"/>
	<path class="st2" d="M3509.87,629.88c375.37,1792.15,750.74,3584.3,1126.11,5376.44"/>
	<path class="st2" d="M3679.48,599.29c262.45,1812.13,524.91,3624.26,787.36,5436.39"/>
	<path class="st2" d="M3850.68,579.38c148.51,1825,297.02,3650.01,445.53,5475.01"/>
	<path class="st2" d="M4022.78,570.21c33.99,1830.72,67.97,3661.44,101.96,5492.16"/>
	<path class="st2" d="M4195.13,571.84c-80.67,1829.26-161.35,3658.52-242.02,5487.78"/>
	<path class="st2" d="M4367.03,584.26c-195.02,1820.62-390.03,3641.24-585.05,5461.87"/>
	<path class="st2" d="M4537.82,607.41c-308.59,1804.84-617.19,3609.69-925.78,5414.53"/>
	<path class="st2" d="M4706.82,641.21c-420.96,1781.99-841.92,3563.98-1262.89,5345.97"/>
	<path class="st2" d="M4873.38,685.51C4341.7,2437.66,3810.02,4189.8,3278.34,5941.95"/>
	<path class="st2" d="M5036.84,740.16c-640.31,1715.43-1280.62,3430.86-1920.93,5146.29"/>
	<path class="st2" d="M5196.55,804.93C4450.12,2476.92,3703.69,4148.9,2957.26,5820.89"/>
	<path class="st2" d="M5351.9,879.57c-849.62,1621.98-1699.25,3243.97-2548.87,4865.95"/>
	<path class="st2" d="M5502.28,963.79c-949.48,1565.62-1898.97,3131.24-2848.45,4696.87"/>
	<path class="st2" d="M5647.08,1057.26C4601.46,2560.38,3555.84,4063.5,2510.22,5566.62"/>
	<path class="st2" d="M5785.75,1159.6C4648.09,2594.33,3510.44,4029.05,2372.78,5463.77"/>
	<path class="st2" d="M5917.75,1270.43c-1225.23,1360.7-2450.47,2721.4-3675.7,4082.09"/>
	<path class="st2" d="M6042.54,1389.3c-1308,1281.34-2616,2562.68-3924.01,3844.01"/>
	<path class="st2" d="M6159.66,1515.75C4774.01,2712.7,3388.37,3909.65,2002.73,5106.6"/>
	<path class="st2" d="M6268.62,1649.28C4810.78,2757.15,3352.93,3865.02,1895.08,4972.9"/>
	<path class="st2" d="M6369.02,1789.37c-1524.33,1014.45-3048.67,2028.89-4573,3043.34"/>
	<path class="st2" d="M6460.45,1935.47C4875.61,2852.52,3290.76,3769.56,1705.92,4686.6"/>
	<path class="st2" d="M6542.55,2087.01c-1639.14,816.04-3278.27,1632.08-4917.41,2448.13"/>
	<path class="st2" d="M6615.01,2243.39c-1687,711.84-3374.01,1423.68-5061.01,2135.52"/>
	<path class="st2" d="M6677.54,2404c-1728.25,604.85-3456.5,1209.7-5184.75,1814.55"/>
	<path class="st2" d="M6729.9,2568.2c-1762.72,495.48-3525.45,990.97-5288.17,1486.45"/>
	<path class="st2" d="M6771.87,2735.37c-1790.28,384.18-3580.56,768.35-5370.84,1152.53"/>
	<path class="st2" d="M6803.29,2904.83c-1810.82,271.36-3621.63,542.72-5432.45,814.08"/>
	<path class="st2" d="M6824.05,3075.92c-1824.25,157.48-3648.5,314.97-5472.75,472.45"/>
	<path class="st2" d="M6834.06,3247.98c-1830.53,42.99-3661.06,85.97-5491.6,128.96"/>
	<path class="st2" d="M6833.27,3420.33c-1829.63-71.68-3659.27-143.36-5488.9-215.04"/>
	<path class="st2" d="M6821.7,3592.29c-1821.56-186.06-3643.12-372.13-5464.68-558.19"/>
	<path class="st2" d="M6799.39,3763.19c-1806.34-299.72-3612.68-599.43-5419.02-899.15"/>
	<path class="st2" d="M6766.43,3932.36c-1784.04-412.2-3568.07-824.39-5352.11-1236.59"/>
	<path class="st2" d="M6722.94,4099.14C4968.2,3576.08,3213.47,3053.02,1458.73,2529.96"/>
	<path class="st2" d="M6669.1,4262.86c-1718.56-631.87-3437.11-1263.74-5155.67-1895.61"/>
	<path class="st2" d="M6605.11,4422.89c-1675.64-738.2-3351.27-1476.4-5026.91-2214.6"/>
	<path class="st2" d="M6531.24,4578.61C4905.1,3736.97,3278.95,2895.33,1652.81,2053.69"/>
	<path class="st2" d="M6447.76,4729.39c-1570.27-941.78-3140.54-1883.55-4710.82-2825.33"/>
	<path class="st2" d="M6355.01,4874.66C4846.76,3836.44,3338.52,2798.22,1830.28,1760"/>
	<path class="st2" d="M6253.34,5013.83c-1440.3-1130.59-2880.6-2261.18-4320.9-3391.77"/>
	<path class="st2" d="M6143.17,5146.37C4776.46,3927.84,3409.75,2709.31,2043.05,1490.78"/>
	<path class="st2" d="M6024.91,5271.75C4737.16,3970.06,3449.4,2668.37,2161.65,1366.69"/>
	<path class="st2" d="M5899.04,5389.48C4695.29,4009.74,3491.54,2630,2287.79,1250.26"/>
</g>
</svg>
